<?xml version="1.0" standalone="no"?>
<!DOCTYPE svg PUBLIC "-//W3C//DTD SVG 20010904//EN"
 "http://www.w3.org/TR/2001/REC-SVG-20010904/DTD/svg10.dtd">
<svg version="1.0" xmlns="http://www.w3.org/2000/svg"
 width="300.000000pt" height="300.000000pt" viewBox="0 0 300.000000 300.000000"
 preserveAspectRatio="xMidYMid meet">
<metadata>
Created by potrace 1.10, written by Peter Selinger 2001-2011
</metadata>
<g transform="translate(0.000000,300.000000) scale(0.100000,-0.100000)"
fill="#000000" stroke="none">
<path d="M5 2980 c4 -6 535 -9 1468 -10 805 0 1477 -3 1495 -6 27 -6 31 -4 26
10 -6 15 -129 16 -1501 16 -962 0 -1492 -3 -1488 -10z"/>
<path d="M382 2456 c-88 -29 -159 -98 -193 -187 -17 -45 -19 -84 -19 -448 0
-460 -6 -431 96 -431 90 0 102 12 102 107 0 121 -4 112 47 107 24 -3 53 0 64
5 13 7 22 8 26 1 10 -15 46 -12 67 7 10 9 18 12 19 7 0 -5 1 -53 2 -107 3
-119 9 -127 102 -127 87 0 95 11 95 133 l0 97 44 -6 c26 -4 52 -2 66 6 16 9
25 9 33 1 15 -15 50 -14 65 1 14 14 14 18 17 -105 3 -119 9 -126 106 -127 58
0 67 3 78 23 9 17 11 127 9 437 -3 415 -3 415 -26 455 -36 61 -81 103 -142
133 -47 23 -68 27 -140 27 -77 0 -91 -3 -146 -33 l-61 -33 -63 32 c-75 38
-176 48 -248 25z m201 -30 c20 -8 53 -26 72 -40 l35 -27 33 25 c113 86 289 73
389 -29 67 -68 68 -73 70 -533 l3 -412 -72 0 -73 0 0 403 c0 381 -1 404 -20
434 -54 90 -194 83 -240 -11 -19 -40 -20 -60 -20 -434 l0 -392 -70 0 -70 0 0
398 c0 358 -2 400 -18 431 -47 93 -194 93 -244 0 -17 -31 -18 -65 -18 -431 l0
-398 -70 0 -70 0 0 413 c0 412 0 412 24 463 27 58 91 117 150 138 52 18 159
19 209 2z m-21 -173 c22 -22 38 -103 20 -103 -6 0 -13 4 -16 9 -4 5 -32 10
-64 10 -31 1 -74 2 -94 2 -24 1 -38 6 -38 15 0 29 21 64 47 79 38 21 118 14
145 -12z m419 -2 c20 -20 29 -39 29 -61 0 -28 -2 -31 -15 -20 -9 8 -28 10 -51
6 -22 -5 -41 -3 -50 4 -7 7 -34 10 -59 8 -48 -3 -51 -1 -34 35 15 34 58 56
107 57 35 0 49 -6 73 -29z m-76 -131 l0 -40 -52 0 -53 0 0 40 0 40 53 0 53 0
-1 -40z m85 0 c0 -33 -3 -40 -20 -40 -11 0 -23 0 -27 0 -8 0 -12 59 -6 73 2 4
15 7 29 7 21 0 24 -4 24 -40z m-510 -10 l0 -40 -50 0 -50 0 0 40 0 40 50 0 50
0 0 -40z m80 28 c0 -5 0 -21 0 -38 0 -25 -4 -30 -25 -30 -23 0 -25 4 -25 41 0
37 2 40 25 37 14 -2 25 -6 25 -10z m344 -135 l-1 -38 -52 -3 -51 -3 0 40 0 41
53 0 52 0 -1 -37z m86 -3 c0 -37 -2 -40 -29 -40 -26 0 -28 3 -28 40 0 37 2 40
28 40 27 0 29 -3 29 -40z m-510 -10 l0 -40 -50 0 -50 0 0 40 0 40 50 0 50 0 0
-40z m80 0 c0 -36 -2 -40 -25 -40 -22 0 -25 4 -25 40 0 36 3 40 25 40 23 0 25
-4 25 -40z m16 -82 c-10 -6 -16 -22 -16 -43 0 -31 -3 -35 -25 -35 -22 0 -25 4
-25 40 0 37 2 40 29 40 21 0 31 6 36 23 7 20 8 20 12 3 3 -11 -2 -23 -11 -28z
m327 -24 l0 -39 -51 -2 -52 -1 0 41 0 42 52 -1 51 -2 0 -38z m87 -4 c0 -37 -2
-40 -29 -40 -26 0 -28 3 -28 40 0 37 2 40 28 40 27 0 29 -3 29 -40z m-510 -10
l0 -40 -50 0 -50 0 0 40 0 40 50 0 50 0 0 -40z m418 -63 c1 -4 2 -20 2 -37 0
-29 -1 -30 -50 -30 l-50 0 0 38 0 39 48 -1 c26 -1 48 -4 50 -9z m-418 -39 l0
-38 -50 0 -50 0 0 38 0 37 50 0 50 0 0 -37z m510 1 c0 -38 -2 -40 -27 -37 -24
3 -27 8 -29 41 -1 34 1 37 28 37 26 0 28 -3 28 -41z m-428 -9 c-4 -34 -7 -40
-28 -40 -21 0 -24 4 -24 40 0 37 2 40 28 40 26 0 27 -2 24 -40z m340 -80 l4
-40 -53 0 -53 0 0 40 0 40 49 0 49 0 4 -40z m88 -6 c0 -43 -1 -45 -27 -42 -24
3 -27 8 -29 40 -1 32 2 37 25 41 14 2 27 5 29 6 1 0 2 -20 2 -45z m-510 -4 l0
-40 -50 0 -50 0 0 40 0 40 50 0 50 0 0 -40z m82 0 c3 -38 2 -40 -24 -40 -26 0
-28 3 -28 40 0 36 3 40 24 40 21 0 24 -6 28 -40z"/>
<path d="M1280 2413 c-9 -2 -21 -12 -27 -22 -11 -18 39 -152 181 -479 20 -46
36 -89 36 -96 0 -30 -36 -46 -106 -46 -63 -1 -67 -2 -50 -15 30 -23 118 -19
149 5 14 11 29 30 32 41 4 13 -28 102 -100 272 -59 139 -113 265 -121 281 -8
16 -14 31 -14 33 0 1 53 3 118 3 l119 0 52 -172 c29 -95 55 -182 58 -193 5
-16 35 80 103 328 l11 37 109 0 c61 0 110 -4 110 -8 0 -5 -6 -22 -14 -38 -7
-16 -64 -165 -126 -332 -66 -176 -125 -320 -142 -343 -44 -61 -99 -81 -215
-81 -126 1 -131 3 -138 60 -11 83 -17 104 -26 95 -5 -5 -6 -39 -2 -76 8 -94
22 -102 173 -102 118 0 147 8 201 53 28 24 64 86 89 157 12 33 39 105 60 160
68 175 160 430 160 441 0 6 -8 18 -18 27 -15 13 -39 17 -114 17 -93 0 -97 -1
-120 -28 -15 -18 -35 -69 -52 -135 -16 -59 -34 -111 -40 -116 -9 -8 -21 20
-47 106 -19 67 -44 129 -57 145 -23 27 -26 27 -120 26 -53 0 -104 -3 -112 -5z"/>
<path d="M420 1321 c-124 -40 -190 -142 -190 -290 1 -126 54 -221 149 -268 45
-23 68 -27 140 -27 99 -1 148 13 198 57 37 33 88 127 75 138 -12 11 -145 48
-154 43 -4 -3 -8 -13 -8 -24 0 -10 -13 -32 -29 -49 -24 -26 -37 -31 -73 -31
-80 0 -118 51 -118 160 0 72 17 119 56 149 52 41 145 13 166 -49 3 -9 23 -8
81 5 42 9 77 20 77 24 0 3 -14 29 -30 58 -21 36 -44 61 -77 80 -42 24 -59 28
-143 30 -52 1 -106 -1 -120 -6z m225 -45 c39 -18 89 -71 82 -89 -3 -8 -20 -17
-38 -19 -25 -4 -39 1 -66 25 -48 42 -123 49 -172 15 -54 -37 -71 -79 -71 -176
0 -123 35 -183 116 -198 52 -10 85 4 132 53 41 42 46 45 75 36 48 -13 47 -45
0 -92 -49 -50 -104 -65 -205 -58 -90 6 -145 32 -183 87 -35 50 -45 92 -45 183
0 141 59 221 183 247 51 11 150 3 192 -14z"/>
<path d="M880 1268 l0 -58 80 0 80 0 0 58 0 57 -80 0 -80 0 0 -57z m109 13
c20 -13 4 -31 -29 -31 -16 0 -32 5 -36 11 -7 12 13 29 36 29 8 0 21 -4 29 -9z"/>
<path d="M1514 1321 c-2 -2 -4 -28 -4 -58 l0 -53 85 0 86 0 -3 56 -3 56 -78 1
c-43 1 -81 0 -83 -2z m111 -51 c0 -18 -43 -26 -57 -12 -16 16 2 33 30 30 16
-2 27 -9 27 -18z"/>
<path d="M1253 1278 c-72 -38 -73 -40 -73 -78 0 -38 -2 -40 -30 -40 -30 0 -30
0 -30 -60 l0 -59 29 5 29 6 4 -123 c5 -176 22 -195 166 -192 46 1 85 3 87 5 1
2 0 28 -2 59 l-5 56 -42 -1 -41 -1 -3 99 -3 99 46 -5 45 -6 0 62 0 61 -46 -3
-46 -4 4 81 c2 50 -1 81 -7 80 -5 -1 -43 -19 -82 -41z m57 -73 c0 -39 22 -71
55 -79 33 -8 32 -34 -2 -47 -44 -16 -52 -37 -53 -127 0 -92 14 -126 56 -136
17 -5 24 -12 22 -24 -3 -14 -15 -17 -65 -17 -91 0 -97 9 -103 150 -5 107 -7
115 -32 142 -34 36 -35 43 -4 73 14 12 28 36 31 51 5 20 18 35 43 48 42 21 52
15 52 -34z"/>
<path d="M1895 1156 c-86 -32 -142 -128 -133 -227 10 -105 75 -173 180 -191
117 -19 230 14 278 82 l20 28 -37 6 c-83 12 -122 10 -141 -7 -38 -35 -132 -8
-132 38 0 8 -1 18 -2 21 -2 3 70 5 160 5 l162 -2 0 38 c0 85 -39 158 -105 195
-51 28 -189 36 -250 14z m241 -52 c44 -32 66 -69 68 -111 l1 -38 -57 -3 c-54
-3 -74 7 -48 23 16 10 11 68 -8 91 -44 55 -109 59 -158 10 -37 -37 -44 -75
-19 -100 8 -8 15 -19 15 -24 0 -5 -7 -15 -15 -22 -25 -21 -18 -68 14 -100 41
-41 72 -46 132 -21 55 22 109 20 89 -4 -32 -39 -210 -44 -272 -8 -47 27 -78
86 -78 151 0 84 26 129 95 167 46 24 204 17 241 -11z m-82 -46 c13 -13 27 -33
31 -45 6 -23 5 -23 -79 -23 l-85 0 11 30 c20 59 78 77 122 38z"/>
<path d="M2390 1148 c-122 -62 -92 -200 48 -228 126 -25 157 -35 160 -51 9
-49 -81 -67 -124 -24 -26 27 -57 30 -142 17 l-43 -7 23 -34 c36 -53 68 -71
146 -83 164 -24 285 36 285 141 0 79 -48 114 -185 136 -88 14 -109 26 -92 53
17 26 69 27 95 1 20 -20 28 -21 92 -15 39 4 73 9 75 11 10 10 -53 78 -84 91
-20 8 -69 14 -122 14 -71 0 -96 -4 -132 -22z m66 -47 c-55 -57 -15 -105 103
-123 42 -6 85 -20 104 -32 82 -55 47 -146 -63 -166 -22 -4 -40 -6 -40 -5 0 2
16 19 35 38 19 19 35 40 35 45 0 6 -11 24 -25 40 -20 24 -38 32 -92 42 -90 17
-128 33 -149 64 -35 54 19 126 95 126 l25 0 -28 -29z m175 19 c10 -6 19 -15
19 -20 0 -17 -54 -11 -85 10 l-30 20 38 0 c21 0 47 -5 58 -10z m-164 -312 c44
-30 42 -42 -6 -34 -59 9 -91 24 -91 41 0 23 58 19 97 -7z"/>
<path d="M880 950 l0 -210 80 0 80 0 0 210 0 210 -80 0 -80 0 0 -210z m111
170 c17 -10 19 -23 19 -163 0 -84 -4 -158 -9 -165 -5 -8 -22 -12 -42 -10 l-34
3 -3 164 c-3 168 0 180 36 181 7 0 22 -5 33 -10z"/>
<path d="M1510 950 l0 -210 85 0 85 0 0 210 0 210 -85 0 -85 0 0 -210z m119
166 c8 -9 11 -64 9 -172 l-3 -159 -40 0 -40 0 -3 159 c-3 168 1 186 43 186 12
0 28 -6 34 -14z"/>
<path d="M77 18 c-7 -4 206 -7 473 -6 267 1 467 3 445 5 -84 7 -908 8 -918 1z"/>
<path d="M1515 20 c-311 -4 -157 -6 525 -7 531 -1 960 1 954 3 -16 7 -996 10
-1479 4z"/>
</g>
</svg>
